<svg width="475" height="192" viewBox="0 0 475 192" fill="none" xmlns="http://www.w3.org/2000/svg">
<path d="M168.768 38.8598V38.8169C168.765 38.824 168.763 38.8312 168.762 38.8383C168.759 38.8312 168.757 38.824 168.756 38.8169V38.8598C168.193 40.8973 166.892 42.3541 164.852 43.2304C166.892 44.1067 168.193 45.5635 168.756 47.601V47.6439C168.758 47.6368 168.761 47.6296 168.762 47.6225C168.764 47.6296 168.767 47.6368 168.768 47.6439V47.601C169.331 45.5635 170.632 44.1067 172.671 43.2304C170.632 42.3541 169.331 40.8973 168.768 38.8598ZM327.633 4.45764V4.41472C327.631 4.42187 327.629 4.42903 327.627 4.43618C327.625 4.42903 327.623 4.42187 327.621 4.41472V4.45764C327.059 6.49511 325.757 7.95198 323.718 8.82825C325.757 9.70452 327.059 11.1614 327.621 13.1989V13.2418C327.624 13.2346 327.626 13.2275 327.627 13.2203C327.63 13.2275 327.632 13.2346 327.633 13.2418V13.1989C328.196 11.1614 329.497 9.70452 331.537 8.82825C329.497 7.95198 328.196 6.49511 327.633 4.45764ZM349.633 81.0303V80.9874C349.631 80.9945 349.628 81.0017 349.627 81.0089C349.625 81.0017 349.622 80.9945 349.621 80.9874V81.0303C349.058 83.0678 347.757 84.5246 345.717 85.4009C347.757 86.2772 349.058 87.7341 349.621 89.7715V89.8144C349.623 89.8073 349.626 89.8001 349.627 89.793C349.629 89.8001 349.632 89.8073 349.633 89.8144V89.7715C350.196 87.7341 351.497 86.2772 353.537 85.4009C351.497 84.5246 350.196 83.0678 349.633 81.0303ZM77.917 163.216V163.173C77.9146 163.18 77.9122 163.187 77.911 163.194C77.9086 163.187 77.9062 163.18 77.9051 163.173V163.216C77.3423 165.253 76.0411 166.71 74.0015 167.586C76.0411 168.463 77.3423 169.92 77.9051 171.957V172C77.9074 171.993 77.9098 171.986 77.911 171.979C77.9134 171.986 77.9158 171.993 77.917 172V171.957C78.4798 169.92 79.781 168.463 81.8206 167.586C79.781 166.71 78.4798 165.253 77.917 163.216ZM360.194 19.0275V18.9405C360.191 18.956 360.186 18.9691 360.182 18.9846C360.179 18.9691 360.174 18.956 360.17 18.9405V19.0275C359.045 23.1013 356.442 26.0162 352.363 27.7687C356.442 29.5213 359.044 32.4362 360.17 36.51V36.597C360.174 36.5815 360.179 36.5684 360.182 36.5529C360.186 36.5684 360.191 36.5815 360.194 36.597V36.51C361.32 32.4362 363.922 29.5213 368.001 27.7687C363.922 26.0162 361.321 23.1013 360.194 19.0275ZM158.659 132.225V132.138C158.656 132.153 158.651 132.166 158.647 132.182C158.644 132.166 158.639 132.153 158.635 132.138V132.225C157.51 136.298 154.907 139.213 150.828 140.966C154.907 142.718 157.509 145.633 158.635 149.707V149.794C158.639 149.779 158.644 149.765 158.647 149.75C158.651 149.765 158.656 149.779 158.659 149.794V149.707C159.785 145.633 162.387 142.718 166.467 140.966C162.387 139.213 159.786 136.298 158.659 132.225ZM137.826 0.087032V0C137.822 0.0154986 137.817 0.0286122 137.814 0.0441108C137.81 0.0286122 137.806 0.0154986 137.802 0V0.087032C136.676 4.16078 134.074 7.07571 129.995 8.82825C134.074 10.5808 136.675 13.4957 137.802 17.5695V17.6565C137.806 17.641 137.81 17.6279 137.814 17.6124C137.817 17.6279 137.822 17.641 137.826 17.6565V17.5695C138.951 13.4957 141.554 10.5808 145.633 8.82825C141.554 7.07571 138.953 4.16078 137.826 0.087032Z" fill="#E3D021"/>
<path d="M267.501 124C292.63 124 313.001 103.629 313.001 78.5C313.001 53.3711 292.63 33 267.501 33C242.373 33 222.001 53.3711 222.001 78.5C222.001 103.629 242.373 124 267.501 124Z" fill="#0065F2"/>
<path d="M198.433 119C194.417 119 192.068 118.106 191.272 116.281C190.137 113.675 192.562 109.937 198.686 104.851C204.136 100.323 212.422 94.8499 222.647 89.0182C223.117 88.7491 223.715 88.9173 223.982 89.3922C224.248 89.8672 224.082 90.4707 223.611 90.7398C213.485 96.5161 205.295 101.924 199.931 106.379C192.551 112.507 192.811 114.896 193.066 115.484C193.376 116.196 196.039 119.453 218.025 113.604C233.395 109.515 253.064 102.29 273.408 93.2589C293.751 84.2294 312.321 74.4815 325.694 65.8101C344.824 53.4086 344.246 49.2272 343.934 48.5148C343.681 47.933 342.132 46.1402 332.817 47.4423C326.043 48.3902 316.691 50.7707 305.774 54.3307C305.259 54.4989 304.706 54.214 304.541 53.6935C304.374 53.1731 304.657 52.615 305.172 52.4488C316.197 48.8552 325.663 46.445 332.549 45.4832C340.289 44.4008 344.601 45.1329 345.728 47.7193C346.638 49.807 345.281 52.5893 341.579 56.2245C338.319 59.4263 333.331 63.2119 326.753 67.4763C313.295 76.2011 294.63 86.0005 274.196 95.0716C253.762 104.143 233.991 111.403 218.523 115.517C210.963 117.528 204.826 118.681 200.285 118.943C199.633 118.98 199.013 119 198.431 119H198.433Z" fill="#8C8C8C"/>
<path d="M473.668 190.186C411.183 133.869 328.449 99.5889 237.709 99.5889C146.969 99.5889 64.2352 133.869 1.75073 190.186" fill="white"/>
<path d="M473.668 191.04C473.465 191.04 473.26 190.968 473.096 190.82C457.501 176.763 440.56 164.039 422.75 152.996C404.748 141.837 385.645 132.271 365.974 124.563C325.127 108.558 281.972 100.443 237.709 100.443C193.447 100.443 150.292 108.558 109.445 124.563C89.7739 132.271 70.6711 141.838 52.6692 152.996C34.8567 164.037 17.9181 176.762 2.32257 190.82C1.9727 191.135 1.43339 191.106 1.11766 190.756C0.801927 190.407 0.830939 189.867 1.18081 189.551C16.8531 175.427 33.8737 162.641 51.7715 151.546C69.8622 140.333 89.0571 130.719 108.824 122.974C149.869 106.891 193.234 98.7363 237.711 98.7363C282.189 98.7363 325.552 106.891 366.599 122.974C386.365 130.719 405.562 140.333 423.651 151.546C441.549 162.639 458.569 175.427 474.242 189.551C474.325 189.626 474.392 189.717 474.441 189.818C474.489 189.919 474.517 190.029 474.523 190.141C474.529 190.253 474.512 190.365 474.475 190.47C474.437 190.576 474.38 190.673 474.305 190.756C474.224 190.845 474.126 190.916 474.017 190.965C473.908 191.013 473.789 191.038 473.67 191.038L473.668 191.04Z" fill="#C9C9C9"/>
<path d="M36.2988 162.746V148.366C36.2988 148.366 55.434 127.498 78.3852 114.63C117.792 92.5388 138.013 95.1978 138.013 95.1978L166.052 106.877C166.052 106.877 147.507 132.995 110.03 151.946C82.6911 165.772 59.5778 171.052 59.5778 171.052" fill="white"/>
<path d="M59.5761 171.909C59.187 171.909 58.8354 171.641 58.745 171.245C58.6392 170.786 58.9276 170.329 59.3867 170.223C59.6171 170.17 82.7219 164.802 109.645 151.187C128.889 141.455 143.01 129.794 151.466 121.724C158.704 114.819 163.142 109.295 164.712 107.243L137.798 96.0323C137.031 95.9572 132.022 95.5869 123.015 97.4932C106.66 100.954 89.9446 109.128 78.8034 115.374C57.552 127.288 39.3658 146.34 37.1539 148.7V162.744C37.1539 163.215 36.7716 163.598 36.3006 163.598C35.8296 163.598 35.4473 163.215 35.4473 162.744V148.364C35.4473 148.15 35.5275 147.944 35.6708 147.787C35.8637 147.577 55.161 126.67 77.9689 113.884C89.2568 107.556 106.197 99.2801 122.803 95.7934C132.811 93.6908 137.914 94.3222 138.125 94.3512C138.201 94.3615 138.272 94.3803 138.342 94.4093L166.381 106.088C166.499 106.137 166.605 106.213 166.69 106.308C166.775 106.404 166.837 106.518 166.872 106.641C166.908 106.764 166.915 106.893 166.893 107.019C166.872 107.146 166.822 107.265 166.748 107.37C166.702 107.436 161.957 114.068 152.685 122.921C144.14 131.079 129.869 142.87 110.418 152.707C83.2988 166.422 60.0011 171.83 59.769 171.883C59.7058 171.899 59.641 171.906 59.5778 171.906L59.5761 171.909Z" fill="#C9C9C9"/>
<path d="M47.9333 149.518C47.5919 149.518 47.2694 149.312 47.138 148.975C47.0554 148.765 47.0598 148.53 47.1504 148.322C47.241 148.115 47.4103 147.952 47.621 147.87C47.6773 147.847 53.6523 145.485 82.2049 132.301C110.626 119.179 121.528 107.311 121.634 107.193C121.786 107.025 121.998 106.924 122.223 106.912C122.449 106.9 122.671 106.979 122.839 107.13C122.922 107.205 122.99 107.295 123.038 107.396C123.086 107.498 123.114 107.607 123.12 107.719C123.126 107.831 123.11 107.943 123.072 108.049C123.035 108.154 122.977 108.251 122.902 108.335C122.789 108.459 120.084 111.437 113.782 116.093C107.996 120.365 97.9437 126.915 82.92 133.851C54.2684 147.081 48.4743 149.368 48.2422 149.458C48.1398 149.498 48.0357 149.516 47.9316 149.516L47.9333 149.518Z" fill="#C9C9C9"/>
<path d="M301.616 105.382C301.616 105.382 322.628 99.5908 325.632 99.5908C334.496 99.5908 348.518 101.204 380.581 116.074C412.646 130.944 431.771 147.265 431.771 147.265L443.206 165.641C443.206 165.641 412.58 169.569 370.594 153.305C328.608 137.04 307.697 119.381 307.697 119.381" fill="white"/>
<path d="M434.164 166.914C431.022 166.914 427.131 166.793 422.577 166.422C410.747 165.46 392.071 162.54 370.289 154.1C358.284 149.449 340.328 141.662 322.956 130.971C312.545 124.565 307.202 120.079 307.149 120.035C306.789 119.731 306.743 119.192 307.048 118.834C307.194 118.661 307.403 118.553 307.628 118.533C307.854 118.514 308.078 118.585 308.251 118.731C308.304 118.776 313.579 123.199 323.896 129.546C333.418 135.404 349.302 144.142 370.906 152.511C392.499 160.876 410.999 163.768 422.717 164.722C432.326 165.504 439.043 165.147 441.759 164.926L431.121 147.832C429.59 146.552 410.632 130.951 380.225 116.849C365.815 110.165 354.029 105.663 344.192 103.083C335.283 100.745 329.595 100.446 325.634 100.446C323.263 100.446 307.657 104.605 301.844 106.206C301.39 106.331 300.919 106.064 300.795 105.61C300.67 105.156 300.936 104.685 301.39 104.561C303.553 103.965 322.601 98.7393 325.634 98.7393C335.324 98.7393 349.474 100.707 380.943 115.301C397.558 123.006 410.636 131.104 418.681 136.54C427.409 142.438 432.28 146.577 432.328 146.618C432.394 146.674 432.452 146.743 432.498 146.816L443.933 165.192C444.087 165.439 444.104 165.746 443.979 166.009C443.854 166.272 443.605 166.453 443.317 166.489C443.112 166.514 439.883 166.917 434.164 166.917V166.914Z" fill="#C9C9C9"/>
<path d="M418.819 147.978C418.788 147.978 418.758 147.978 418.725 147.973C418.488 147.947 394.68 145.257 368.43 133.604C360.861 130.244 349.812 124.841 340.159 118.185C334.353 114.181 331.832 111.646 331.728 111.541C331.397 111.204 331.4 110.665 331.736 110.334C332.073 110.003 332.612 110.006 332.943 110.342C333.042 110.443 343.186 120.531 369.123 132.046C395.119 143.587 418.676 146.252 418.91 146.278C419.377 146.329 419.717 146.751 419.666 147.218C419.643 147.427 419.544 147.62 419.388 147.761C419.232 147.901 419.029 147.979 418.819 147.98V147.978Z" fill="#C9C9C9"/>
</svg>
