<svg width="357" height="252" viewBox="0 0 357 252" fill="none" xmlns="http://www.w3.org/2000/svg">
<path d="M14.0975 245.223C14.0564 245.223 14.016 245.211 13.9809 245.19C13.9458 245.168 13.9174 245.137 13.8987 245.1L1.27203 222.547L7.74251 241.268C7.7619 241.327 7.7577 241.391 7.73088 241.446C7.70422 241.502 7.65688 241.546 7.59919 241.567C7.54168 241.587 7.47882 241.582 7.42421 241.554C7.39709 241.541 7.37285 241.523 7.3529 241.5C7.33295 241.477 7.31769 241.451 7.30804 241.422L0.0148365 220.268C-0.00584474 220.212 -0.00488052 220.15 0.017578 220.094C0.0405461 220.04 0.0830366 219.996 0.136538 219.971C0.19004 219.947 0.250611 219.944 0.306148 219.963C0.36189 219.983 0.408104 220.022 0.435571 220.075L14.3007 244.881C14.3308 244.935 14.3382 244.998 14.3219 245.057C14.3054 245.118 14.2662 245.169 14.213 245.2C14.1774 245.218 14.1374 245.226 14.0975 245.223ZM19.3062 245.223H19.2831C19.2228 245.214 19.1677 245.183 19.129 245.136C19.0904 245.087 19.0712 245.026 19.0752 244.964C19.1075 244.632 22.3104 211.65 30.9162 198.111C30.9448 198.065 30.9887 198.029 31.0403 198.012C31.0918 197.994 31.1477 197.996 31.1981 198.017C31.2479 198.039 31.2889 198.076 31.3143 198.125C31.3395 198.174 31.3474 198.23 31.3367 198.284C31.272 198.598 24.7877 229.983 27.8612 241.263C27.8694 241.294 27.8715 241.325 27.8675 241.356C27.8593 241.42 27.8265 241.479 27.7762 241.518C27.7513 241.538 27.7229 241.551 27.6925 241.559C27.6621 241.569 27.6304 241.571 27.5992 241.566C27.568 241.563 27.5378 241.552 27.5107 241.536C27.4836 241.52 27.4597 241.499 27.4404 241.474C27.4213 241.449 27.4072 241.42 27.3989 241.389C24.6583 231.331 29.4095 205.594 30.6064 199.496C22.5647 213.564 19.5467 244.689 19.5142 245.007C19.5093 245.062 19.4859 245.113 19.4479 245.152C19.4101 245.192 19.36 245.216 19.3062 245.223ZM38.7502 243.532C38.7056 243.533 38.6619 243.52 38.6243 243.496C38.5866 243.472 38.5565 243.437 38.5375 243.397C38.5167 243.35 38.5118 243.298 38.5236 243.248L40.4371 234.977L31.2674 243.472C31.2461 243.493 31.2204 243.511 31.1923 243.523C31.1642 243.536 31.134 243.541 31.1034 243.541C31.0729 243.541 31.0427 243.536 31.0146 243.523C30.9865 243.511 30.961 243.494 30.9394 243.472C30.8968 243.428 30.8729 243.367 30.8729 243.305C30.8729 243.243 30.8968 243.184 30.9394 243.14L40.6451 234.129C40.6811 234.095 40.727 234.074 40.7761 234.069C40.8252 234.062 40.8748 234.072 40.9178 234.097C40.9605 234.123 40.9938 234.162 41.013 234.208C41.032 234.254 41.0359 234.306 41.024 234.355L39.1384 242.513L45.1466 235.988C45.1775 235.954 45.2179 235.931 45.2627 235.919C45.3074 235.909 45.3539 235.914 45.3963 235.932C45.4401 235.947 45.4779 235.977 45.5044 236.016C45.531 236.053 45.5449 236.101 45.5441 236.147V243.313C45.5441 243.375 45.5198 243.435 45.4764 243.479C45.4331 243.523 45.3743 243.547 45.3131 243.547C45.2518 243.547 45.193 243.523 45.1497 243.479C45.1064 243.435 45.082 243.375 45.082 243.313V236.76L38.8841 243.49C38.8455 243.519 38.7983 243.534 38.7502 243.532ZM68.177 245.821C68.1211 245.82 68.0673 245.799 68.0256 245.761C67.9839 245.723 67.9572 245.671 67.9505 245.615C67.9505 245.499 66.6425 234.069 63.6615 229.847L63.5599 229.712C63.5416 229.687 63.5283 229.658 63.5208 229.628C63.5134 229.598 63.5118 229.567 63.5163 229.536C63.5208 229.506 63.5313 229.476 63.5471 229.449C63.5629 229.423 63.5837 229.4 63.6084 229.381C63.658 229.345 63.7202 229.329 63.7814 229.339C63.8425 229.347 63.8974 229.381 63.9343 229.43C63.9666 229.478 64.0036 229.525 64.0359 229.576C64.8678 230.728 70.5387 238.66 72.3829 243.21C72.4009 243.252 72.4059 243.299 72.3971 243.345C72.3883 243.39 72.3662 243.431 72.3336 243.464C72.2899 243.507 72.2311 243.532 72.1698 243.532C72.1395 243.532 72.1093 243.528 72.0814 243.514C72.0531 243.503 72.0276 243.486 72.0067 243.464C71.9851 243.442 71.9684 243.416 71.9576 243.387C70.6912 240.262 67.5855 235.505 65.5287 232.506C67.5068 237.608 68.3665 245.17 68.408 245.565C68.4147 245.625 68.3969 245.687 68.3588 245.735C68.3401 245.759 68.3169 245.779 68.2904 245.794C68.264 245.809 68.2349 245.818 68.2048 245.821H68.177ZM82.4584 243.532C82.4147 243.534 82.3711 243.521 82.3339 243.496C82.2968 243.474 82.2677 243.438 82.2499 243.397C80.4936 239.611 84.6719 227.742 86.3684 223.272C81.0995 231.14 77.9198 243.253 77.8875 243.397C77.8794 243.426 77.8665 243.456 77.8487 243.48C77.8293 243.505 77.8067 243.524 77.7808 243.541C77.755 243.555 77.7259 243.567 77.6952 243.57C77.6645 243.575 77.6338 243.573 77.6047 243.565C77.5449 243.549 77.4949 243.51 77.4625 243.456C77.4318 243.4 77.4238 243.336 77.4383 243.276C77.4755 243.14 81.1092 229.299 87.0712 221.508C87.0987 221.454 87.1472 221.415 87.2037 221.395C87.2603 221.375 87.3217 221.379 87.375 221.405C87.4235 221.433 87.459 221.478 87.4768 221.531C87.4946 221.585 87.4929 221.642 87.4719 221.694C87.4041 221.868 80.618 238.768 82.67 243.195C82.6846 243.223 82.691 243.253 82.6943 243.284C82.697 243.345 82.6761 243.405 82.6361 243.451C82.6151 243.474 82.5908 243.492 82.565 243.505C82.5327 243.524 82.4955 243.534 82.4584 243.532ZM103.33 245.821H103.293C103.233 245.812 103.178 245.777 103.143 245.728C103.107 245.677 103.091 245.615 103.099 245.555L104.684 235.286C102.28 239.354 95.7961 243.298 95.4407 243.5C95.4148 243.516 95.3857 243.526 95.3567 243.531C95.326 243.536 95.2969 243.534 95.2662 243.528C95.2371 243.519 95.2096 243.506 95.1854 243.488C95.1611 243.47 95.1418 243.447 95.1256 243.42C95.1111 243.393 95.0998 243.364 95.0949 243.334C95.0901 243.303 95.0917 243.272 95.0998 243.243C95.1062 243.212 95.1192 243.184 95.1369 243.159C95.1563 243.135 95.1789 243.114 95.2048 243.097C95.2969 243.042 103.676 237.95 104.91 233.563L105.067 232.544C105.074 232.482 105.103 232.424 105.15 232.384C105.198 232.344 105.258 232.325 105.319 232.331C105.381 232.336 105.437 232.366 105.478 232.415C105.516 232.462 105.536 232.524 105.529 232.585C105.523 232.946 105.468 233.306 105.368 233.653L103.519 245.625C103.513 245.674 103.492 245.72 103.456 245.754C103.422 245.79 103.379 245.813 103.33 245.821ZM140.133 251.995H140.106C140.044 251.988 139.989 251.957 139.951 251.908C139.913 251.86 139.896 251.799 139.902 251.738L142.033 232.29L136.486 251.831C136.472 251.875 136.446 251.916 136.409 251.946C136.373 251.975 136.33 251.995 136.283 252C136.238 252.001 136.192 251.99 136.152 251.969C136.112 251.946 136.079 251.913 136.057 251.872L130.02 240.051V251.751C130.019 251.813 129.995 251.872 129.951 251.915C129.909 251.959 129.851 251.983 129.789 251.985C129.728 251.985 129.67 251.96 129.626 251.916C129.582 251.872 129.558 251.813 129.558 251.751V239.082C129.558 239.03 129.576 238.979 129.607 238.938C129.639 238.897 129.684 238.869 129.734 238.856C129.784 238.845 129.838 238.85 129.885 238.871C129.931 238.894 129.97 238.931 129.993 238.979L136.201 251.147L142.337 229.528C142.35 229.468 142.384 229.412 142.436 229.376C142.488 229.341 142.551 229.328 142.612 229.34C142.674 229.352 142.728 229.388 142.764 229.44C142.798 229.492 142.812 229.556 142.799 229.618L140.369 251.803C140.359 251.858 140.329 251.908 140.286 251.943C140.243 251.978 140.189 251.997 140.133 251.995ZM168.908 250.085C168.846 250.085 168.788 250.061 168.744 250.017C168.701 249.972 168.677 249.914 168.677 249.851V244.234L165.678 249.814C165.65 249.861 165.608 249.899 165.558 249.917C165.508 249.936 165.452 249.938 165.401 249.92C165.35 249.902 165.307 249.867 165.279 249.82C165.251 249.773 165.24 249.718 165.248 249.663L166.684 240.594L160.722 249.828C160.701 249.863 160.672 249.891 160.637 249.91C160.6 249.93 160.559 249.938 160.519 249.935C160.478 249.933 160.44 249.92 160.406 249.897C160.371 249.874 160.343 249.842 160.325 249.804L149.024 227.362L156.665 249.622C156.678 249.652 156.685 249.683 156.685 249.716C156.686 249.748 156.68 249.781 156.667 249.81C156.654 249.84 156.636 249.866 156.612 249.889C156.589 249.912 156.562 249.928 156.531 249.94C156.5 249.95 156.468 249.954 156.436 249.951C156.405 249.95 156.373 249.94 156.345 249.925C156.318 249.909 156.292 249.887 156.273 249.863C156.253 249.837 156.239 249.807 156.231 249.776L147.481 224.293C147.457 224.235 147.456 224.17 147.478 224.113C147.501 224.054 147.544 224.008 147.601 223.983C147.658 223.959 147.722 223.957 147.779 223.98C147.837 224.003 147.882 224.047 147.906 224.104L160.556 249.233L166.893 239.404C166.922 239.36 166.965 239.327 167.016 239.311C167.067 239.296 167.121 239.296 167.171 239.316C167.22 239.336 167.261 239.372 167.287 239.419C167.313 239.466 167.322 239.52 167.313 239.573L165.927 248.377L168.701 243.19C168.725 243.144 168.764 243.108 168.811 243.087C168.858 243.067 168.911 243.063 168.961 243.076C169.011 243.089 169.055 243.118 169.087 243.159C169.118 243.2 169.135 243.251 169.134 243.303V249.856C169.134 249.917 169.11 249.974 169.068 250.017C169.024 250.059 168.967 250.084 168.908 250.085ZM238.044 249.917H237.98C237.95 249.908 237.922 249.894 237.899 249.874C237.875 249.854 237.855 249.83 237.841 249.802C237.826 249.776 237.816 249.745 237.813 249.714C237.81 249.683 237.813 249.652 237.823 249.622L244.165 228.046L228.751 243.49C228.725 243.514 228.694 243.534 228.66 243.546C228.628 243.557 228.592 243.56 228.557 243.557C228.521 243.549 228.487 243.536 228.458 243.514C228.429 243.493 228.403 243.465 228.386 243.434L213.463 215.788L218.476 249.663C218.481 249.694 218.481 249.725 218.475 249.756C218.467 249.786 218.454 249.814 218.436 249.84C218.418 249.864 218.394 249.886 218.368 249.9C218.342 249.917 218.313 249.927 218.282 249.932C218.223 249.94 218.161 249.923 218.111 249.886C218.063 249.85 218.029 249.796 218.019 249.734L212.815 214.552C212.808 214.499 212.82 214.444 212.849 214.399C212.878 214.353 212.92 214.319 212.972 214.302C213.022 214.284 213.077 214.286 213.127 214.305C213.177 214.325 213.219 214.361 213.245 214.407L228.639 242.956L244.473 227.105C244.51 227.069 244.557 227.045 244.609 227.04C244.661 227.033 244.711 227.045 244.756 227.071C244.8 227.099 244.834 227.14 244.851 227.187C244.871 227.236 244.872 227.288 244.858 227.339L238.262 249.804C238.24 249.842 238.208 249.871 238.169 249.891C238.132 249.91 238.088 249.92 238.044 249.917ZM339.77 245.821C339.748 245.826 339.723 245.826 339.701 245.821C339.672 245.813 339.645 245.798 339.622 245.779C339.599 245.759 339.58 245.735 339.567 245.709C339.538 245.653 339.531 245.591 339.549 245.532C339.849 244.501 346.144 223.038 353.525 213.33C347.784 218.512 336.382 230.067 332.343 243.379C332.325 243.438 332.285 243.487 332.231 243.514C332.178 243.544 332.115 243.55 332.057 243.532C332.028 243.524 332 243.51 331.978 243.49C331.953 243.47 331.934 243.447 331.919 243.42C331.905 243.393 331.897 243.364 331.894 243.333C331.892 243.302 331.895 243.272 331.903 243.243C337.043 226.305 353.972 212.208 356.362 210.284L356.64 210.064C356.688 210.03 356.748 210.017 356.806 210.027C356.865 210.037 356.916 210.068 356.952 210.115C356.989 210.161 357.005 210.222 356.999 210.28C356.994 210.339 356.966 210.395 356.921 210.434L356.658 210.644C348.233 217.561 340.071 245.381 339.992 245.663C339.975 245.709 339.946 245.749 339.906 245.777C339.866 245.805 339.819 245.821 339.77 245.821ZM317.355 241.562C317.3 241.562 317.247 241.543 317.205 241.507C317.165 241.471 317.137 241.42 317.127 241.366C317.105 241.221 316.573 237.734 319.574 232.31C322.115 227.709 327.767 220.847 340.329 213.499C332.495 216.869 313.56 226.245 311.324 238.871C311.312 238.932 311.277 238.987 311.227 239.021C311.177 239.057 311.115 239.072 311.056 239.062C310.994 239.051 310.941 239.017 310.905 238.966C310.871 238.915 310.857 238.853 310.865 238.792C313.731 222.625 343.25 211.8 343.546 211.692C343.601 211.673 343.662 211.674 343.716 211.697C343.771 211.722 343.814 211.764 343.837 211.82C343.86 211.874 343.861 211.935 343.842 211.99C343.822 212.046 343.782 212.092 343.73 212.119C315.672 227.311 317.562 241.137 317.581 241.286C317.586 241.317 317.586 241.348 317.578 241.378C317.572 241.409 317.56 241.437 317.543 241.463C317.525 241.487 317.502 241.508 317.476 241.525C317.451 241.541 317.422 241.553 317.391 241.558L317.355 241.562ZM279.937 251.995C279.877 251.993 279.819 251.969 279.777 251.926C279.734 251.884 279.708 251.826 279.706 251.766C279.706 251.587 279.623 247.301 282.978 241.6C286.06 236.363 292.772 228.916 307.223 223.196C307.28 223.177 307.341 223.178 307.396 223.201C307.451 223.224 307.495 223.268 307.519 223.324C307.543 223.378 307.545 223.442 307.525 223.497C307.504 223.555 307.462 223.601 307.409 223.627C307.183 223.745 284.726 234.977 285.265 249.673C285.267 249.735 285.245 249.795 285.204 249.84C285.162 249.886 285.105 249.913 285.044 249.917C285.013 249.918 284.983 249.914 284.954 249.902C284.925 249.891 284.899 249.874 284.876 249.853C284.853 249.832 284.836 249.806 284.823 249.778C284.811 249.749 284.805 249.719 284.803 249.688C284.401 238.454 297.088 229.226 303.544 225.279C280.039 236.106 280.163 251.592 280.168 251.751C280.169 251.782 280.165 251.813 280.153 251.843C280.142 251.872 280.126 251.898 280.105 251.921C280.084 251.944 280.059 251.962 280.031 251.975C280.003 251.988 279.972 251.994 279.942 251.995H279.937ZM323.363 250.913C323.304 250.912 323.248 250.889 323.205 250.849C323.162 250.808 323.136 250.753 323.131 250.694C323.131 250.614 322.669 242.816 320.317 239.671C320.283 239.628 320.265 239.576 320.265 239.522C320.265 239.467 320.283 239.414 320.317 239.372C320.354 239.331 320.403 239.303 320.457 239.296C320.511 239.288 320.566 239.3 320.613 239.329C320.876 239.498 327.158 243.542 327.953 249.65C327.956 249.681 327.954 249.712 327.946 249.742C327.938 249.771 327.924 249.799 327.906 249.824C327.887 249.848 327.864 249.869 327.836 249.884C327.811 249.9 327.782 249.91 327.751 249.914C327.72 249.918 327.689 249.917 327.66 249.909C327.631 249.9 327.604 249.886 327.578 249.868C327.554 249.848 327.534 249.825 327.518 249.797C327.504 249.771 327.494 249.742 327.489 249.711C326.903 245.198 323.094 241.782 321.296 240.398C323.196 244.01 323.561 250.37 323.576 250.666C323.579 250.728 323.558 250.788 323.518 250.835C323.477 250.881 323.419 250.91 323.358 250.913H323.363ZM307.307 251.995C307.259 251.995 307.212 251.98 307.173 251.952C305.194 250.555 303.602 248.667 302.55 246.468C302.255 248.855 302.712 250.09 303.179 250.722C303.465 251.141 303.901 251.43 304.396 251.527C304.455 251.533 304.51 251.564 304.549 251.614C304.588 251.661 304.606 251.723 304.599 251.784C304.591 251.844 304.561 251.899 304.514 251.938C304.468 251.977 304.409 251.998 304.349 251.995C304.043 251.941 303.753 251.828 303.491 251.659C303.229 251.491 303.001 251.273 302.823 251.016C301.978 249.894 301.775 248.053 302.222 245.545C302.221 245.514 302.226 245.484 302.235 245.455C302.245 245.425 302.261 245.399 302.281 245.375C302.302 245.352 302.326 245.334 302.353 245.321C302.379 245.306 302.41 245.3 302.441 245.298C302.47 245.295 302.5 245.3 302.529 245.309C302.559 245.319 302.584 245.336 302.607 245.355C302.653 245.397 302.681 245.455 302.685 245.517C303.638 247.969 305.293 250.076 307.436 251.569C307.477 251.597 307.507 251.638 307.522 251.686C307.538 251.733 307.54 251.784 307.524 251.831C307.509 251.879 307.48 251.921 307.44 251.951C307.399 251.98 307.351 251.995 307.302 251.995H307.307ZM310.455 251.995H310.408C310.348 251.982 310.295 251.944 310.261 251.892C310.227 251.839 310.215 251.775 310.227 251.713L312.4 241.281C312.403 241.219 312.431 241.162 312.477 241.121C312.5 241.099 312.526 241.085 312.555 241.073C312.613 241.054 312.677 241.058 312.733 241.085C312.76 241.098 312.784 241.117 312.804 241.14C312.825 241.163 312.839 241.189 312.849 241.219C312.859 241.248 312.864 241.279 312.862 241.309L313.744 251.743C313.749 251.805 313.728 251.865 313.689 251.913C313.649 251.962 313.594 251.993 313.532 252C313.471 252.003 313.411 251.983 313.364 251.942C313.318 251.903 313.288 251.846 313.282 251.784L312.529 242.934L310.681 251.826C310.666 251.875 310.637 251.919 310.595 251.949C310.555 251.98 310.505 251.996 310.455 251.995Z" fill="#11100E"/>
<path d="M86.3768 64.6367C86.3419 64.6342 86.3091 64.6194 86.2843 64.5951C74.5673 51.9006 78.547 29.5819 95.1554 14.8539C111.764 0.125902 134.794 -1.51663 146.521 11.1829C146.544 11.2087 146.557 11.242 146.556 11.2761C146.553 11.311 146.537 11.3436 146.51 11.3669L86.4667 64.6023C86.4415 64.624 86.4098 64.6358 86.3768 64.6367ZM125.346 2.8979C115.363 2.8979 104.386 7.0171 95.3271 15.0482C78.8694 29.6389 74.8765 51.7115 86.3874 64.3225L146.23 11.2632C141.006 5.64916 133.501 2.8979 125.346 2.8979Z" fill="#11100E"/>
<path d="M90.656 73C88.6661 73 87.1664 72.4642 86.1986 71.3856C83.8179 68.7341 85.0082 63.1303 89.5507 55.607C94.0733 48.1155 101.387 39.5995 110.138 31.6266C118.888 23.6538 128.029 17.1752 135.882 13.3956C143.768 9.59417 149.421 8.9618 151.801 11.6133C154.182 14.2649 152.992 19.8687 148.449 27.3915C143.927 34.8851 136.613 43.401 127.862 51.3739C119.112 59.3467 109.967 65.8201 102.114 69.5973C97.4363 71.859 93.5505 73 90.656 73ZM147.346 10.181C139.567 10.181 124.733 18.573 110.261 31.7615C92.2407 48.1738 81.5077 65.8927 86.3288 71.2633C91.1499 76.6339 109.727 67.6549 127.741 51.2391C145.756 34.8231 156.489 17.106 151.668 11.7373C150.716 10.6821 149.244 10.181 147.346 10.181Z" fill="#11100E"/>
<path d="M129.757 54.8956C150.818 35.7506 163.299 15.1286 157.635 8.8349C151.97 2.54129 130.304 12.9593 109.243 32.1043C88.182 51.2493 75.7005 71.8716 81.365 78.1652C87.0297 84.4587 108.695 74.0403 129.757 54.8956Z" fill="white"/>
<path d="M83.7062 90.6367C80.8516 90.6367 78.6775 89.8712 77.2828 88.3329C73.8521 84.5444 75.5674 76.537 82.116 65.7887C88.6332 55.085 99.1703 42.915 111.78 31.5236C124.389 20.132 137.567 10.8835 148.886 5.48595C160.247 0.0570345 168.394 -0.846482 171.827 2.94207C175.261 6.73053 173.543 14.7371 166.996 25.4854C160.479 36.1895 149.94 48.3594 137.33 59.7483C124.721 71.1373 111.543 80.3909 100.226 85.7987C93.482 89.0092 87.872 90.6367 83.7062 90.6367ZM165.399 0.877259C161.288 0.877259 155.714 2.50196 148.998 5.70987C137.703 11.1075 124.548 20.3429 111.955 31.7188C85.9976 55.1657 70.5283 80.4847 77.4809 88.1581C84.4336 95.8315 111.193 82.9952 137.153 59.5452C149.744 48.172 160.263 36.0228 166.77 25.3396C173.253 14.698 174.979 6.80344 171.632 3.1061C170.286 1.62712 168.172 0.877259 165.399 0.877259Z" fill="#11100E"/>
<path d="M127.636 50.4028C135.101 43.8464 139.524 36.7839 137.516 34.6285C135.508 32.473 127.829 36.0407 120.365 42.5971C112.9 49.1536 108.476 56.216 110.484 58.3715C112.492 60.5271 120.171 56.9593 127.636 50.4028Z" fill="#0065F2"/>
<path d="M112.028 58.6367C111.159 58.6367 110.504 58.4006 110.07 57.9233C107.963 55.5699 112.523 47.9145 120.226 40.8674C123.945 37.467 127.843 34.7081 131.174 33.0888C134.558 31.4515 136.996 31.1897 138.029 32.3497C139.062 33.5097 138.568 35.9425 136.618 39.1762C134.692 42.3738 131.582 46.0078 127.863 49.4081C124.143 52.8085 120.246 55.5673 116.915 57.1867C114.935 58.1542 113.272 58.6367 112.028 58.6367ZM136.089 31.898C134.886 31.898 133.243 32.3779 131.293 33.3198C127.975 34.9237 124.108 37.6826 120.406 41.0573C112.789 48.012 108.245 55.5007 110.25 57.7513C111.192 58.8061 113.584 58.5213 116.814 56.9558C120.132 55.3492 123.999 52.593 127.701 49.2183C131.402 45.8435 134.494 42.2198 136.406 39.0427C138.268 35.9631 138.79 33.5764 137.849 32.5216C137.483 32.1059 136.884 31.898 136.089 31.898Z" fill="#11100E"/>
<path d="M110.711 60.75C109.493 60.75 108.556 60.4171 107.95 59.7512C106.62 58.2815 107.066 55.3889 109.208 51.5989C111.33 47.8532 114.86 43.6601 119.15 39.792C123.44 35.9239 127.978 32.8441 131.936 31.1143C135.931 29.3689 138.864 29.2154 140.198 30.6851C141.531 32.1548 141.082 35.0474 138.94 38.8347C136.818 42.5806 133.288 46.7762 128.998 50.6417C124.708 54.5071 120.17 57.5922 116.212 59.3193C114.03 60.2688 112.17 60.75 110.711 60.75ZM137.434 29.936C136.017 29.936 134.188 30.4094 132.035 31.3511C128.108 33.0678 123.594 36.1321 119.325 39.9819C115.056 43.8317 111.544 48.0014 109.435 51.7263C107.348 55.4071 106.894 58.1956 108.143 59.5743C109.393 60.9529 112.225 60.776 116.107 59.0774C120.022 57.3632 124.549 54.2964 128.818 50.4466C133.087 46.5968 136.599 42.4271 138.707 38.7047C140.796 35.0214 141.25 32.2355 139.996 30.8568C139.441 30.2429 138.559 29.936 137.434 29.936ZM112.321 40.0653C112.017 40.0838 111.712 40.0377 111.427 39.9301C111.142 39.8224 110.883 39.6557 110.667 39.4409C110.09 38.8036 110.028 37.7813 110.492 36.564C111.06 35.215 111.931 34.0143 113.039 33.0549C115.518 30.8231 118.482 30.0531 119.651 31.3408C120.818 32.6413 119.756 35.5027 117.279 37.7268C115.614 39.225 113.733 40.0653 112.321 40.0653ZM117.986 30.9609C116.653 30.9609 114.834 31.7855 113.214 33.2448C112.137 34.176 111.289 35.3421 110.737 36.6524C110.309 37.7761 110.354 38.7022 110.86 39.2537C111.932 40.4346 114.732 39.6569 117.102 37.5212C119.471 35.3856 120.528 32.6855 119.45 31.5046C119.258 31.3171 119.028 31.172 118.776 31.0788C118.524 30.9856 118.255 30.9463 117.986 30.9636V30.9609ZM159.751 16.0454C159.322 16.0647 158.895 15.9928 158.497 15.8345C158.1 15.6761 157.74 15.435 157.444 15.1273C156.05 13.5899 156.802 10.6401 159.119 8.55131C161.436 6.4626 164.455 6.01256 165.851 7.54992C166.532 8.3016 166.728 9.40456 166.402 10.6558C165.983 11.9915 165.213 13.1908 164.171 14.1289C163.129 15.0666 161.854 15.7087 160.479 15.9882C160.238 16.0255 159.994 16.0447 159.751 16.0454ZM163.537 6.90482C162.214 6.90482 160.635 7.54992 159.294 8.75683C157.083 10.752 156.34 13.5353 157.639 14.9659C158.26 15.65 159.257 15.9284 160.45 15.7463C161.773 15.4731 162.999 14.8525 164.001 13.9487C165.003 13.0454 165.746 11.8914 166.151 10.6063C166.454 9.44358 166.279 8.42646 165.656 7.74498C165.382 7.46305 165.052 7.24232 164.687 7.09746C164.321 6.9526 163.929 6.88693 163.537 6.90482ZM82.5633 85.6335C82.1353 85.6534 81.708 85.5817 81.3101 85.4233C80.9123 85.2649 80.553 85.0234 80.2566 84.715C78.8632 83.18 79.612 80.231 81.9292 78.1394C82.954 77.1801 84.2339 76.5346 85.6163 76.2798C86.8975 76.0815 87.9649 76.3862 88.6615 77.1382C90.055 78.675 89.3035 81.625 86.9863 83.7138C85.9634 84.675 84.6841 85.3216 83.3018 85.5762C83.0574 85.6135 82.8106 85.6335 82.5633 85.6335ZM86.3548 76.4798C86.1205 76.4798 85.8867 76.4989 85.6555 76.5371C84.3234 76.7845 83.0907 77.4082 82.104 78.334C79.8938 80.3264 79.1528 83.11 80.4496 84.5404C81.0707 85.2279 82.0701 85.5034 83.2626 85.3215C84.5942 85.0744 85.8262 84.4503 86.8114 83.5238C89.0217 81.5313 89.7653 78.7451 88.4684 77.3146C88.196 77.0336 87.8665 76.8137 87.5019 76.6699C87.1374 76.5259 86.7464 76.4611 86.3548 76.4798Z" fill="#11100E"/>
<path d="M110 57.7042L141.332 183.645C141.332 183.645 147.705 188.346 155.79 186.619C163.875 184.892 164.21 181.432 176.586 174.556C181.438 171.862 191.489 172.492 199.37 167.353C206.93 162.424 205.534 158.856 210.427 153.307C220.215 142.209 224.265 145.54 232.163 137.882C235.478 134.668 233.864 126.798 236 121.596C238.639 115.161 245.229 111.462 246.462 105.74C248.323 97.0994 244.757 90.6813 244.757 90.6813L136.248 34L110 57.7042Z" fill="#0065F2"/>
<path d="M129.569 82.2035C129.546 82.2044 129.524 82.1989 129.504 82.1879C126.663 80.5315 126.512 77.5697 126.338 74.1418C126.299 73.3382 126.254 72.5081 126.176 71.6735C125.89 68.667 123.81 66.5489 122.138 64.8469C121.472 64.2154 120.862 63.5269 120.316 62.789C118.858 60.6151 118.566 52.1273 118.556 51.7672C118.556 51.7326 118.569 51.6994 118.594 51.6749C118.618 51.6505 118.651 51.6367 118.686 51.6367C118.72 51.6367 118.754 51.6505 118.778 51.6749C118.802 51.6994 118.816 51.7326 118.816 51.7672C118.816 51.856 119.118 60.542 120.534 62.6558C121.07 63.3787 121.667 64.0544 122.318 64.6754C124.018 66.4048 126.135 68.5603 126.429 71.6571C126.509 72.4999 126.551 73.3327 126.593 74.139C126.77 77.473 126.916 80.3773 129.634 81.9426C129.664 81.9608 129.685 81.99 129.694 82.0238C129.703 82.0566 129.698 82.0931 129.681 82.1232C129.672 82.146 129.656 82.1651 129.636 82.1797C129.617 82.1943 129.593 82.2025 129.569 82.2035ZM168.845 113.437C168.822 113.436 168.799 113.43 168.778 113.418C167.031 112.351 166.828 111.307 166.382 109.019C166.263 108.392 166.122 107.686 165.933 106.848C165.346 104.289 163.516 103.547 161.394 102.691C160.317 102.253 159.202 101.804 158.184 101.071C156.491 99.8556 156.135 97.6792 155.791 95.5575C155.518 93.8773 155.237 92.1396 154.291 90.8744C154.271 90.8471 154.262 90.8115 154.267 90.7778C154.272 90.7431 154.291 90.7121 154.318 90.692C154.345 90.671 154.38 90.6619 154.414 90.6665C154.449 90.672 154.479 90.6902 154.5 90.7176C155.482 92.0356 155.77 93.8043 156.049 95.5164C156.4 97.671 156.732 99.7069 158.335 100.86C159.32 101.515 160.38 102.048 161.493 102.449C163.589 103.297 165.57 104.098 166.179 106.788C166.372 107.631 166.511 108.353 166.63 108.969C167.072 111.248 167.258 112.189 168.905 113.196C168.931 113.211 168.951 113.232 168.963 113.259C168.973 113.285 168.975 113.315 168.967 113.344C168.96 113.371 168.943 113.396 168.919 113.413C168.895 113.429 168.867 113.438 168.838 113.437H168.845ZM215.29 105.687H215.254C213.327 105.118 212.945 104.332 212.411 103.244C211.909 102.134 211.208 101.125 210.344 100.268C208.951 98.8586 207.792 98.8823 206.673 98.9051C205.493 98.9288 204.379 98.9498 203.194 97.3398C200.934 94.2613 199.339 93.4805 195.628 91.8605C195.612 91.8541 195.598 91.8441 195.586 91.8313C195.562 91.8062 195.549 91.7729 195.55 91.7383C195.55 91.7209 195.553 91.7045 195.561 91.6881C195.568 91.6726 195.577 91.658 195.59 91.6461C195.601 91.6343 195.616 91.6252 195.632 91.6188C195.649 91.6124 195.665 91.6097 195.683 91.6097C195.7 91.6097 195.717 91.6133 195.733 91.6206C199.393 93.2196 201.109 94.0597 203.403 97.1857C204.509 98.6917 205.506 98.6734 206.667 98.6497C207.787 98.626 209.058 98.6004 210.528 100.087C211.412 100.964 212.128 101.996 212.643 103.13C213.163 104.195 213.509 104.902 215.324 105.436C215.341 105.439 215.358 105.444 215.372 105.454C215.388 105.462 215.4 105.474 215.411 105.487C215.421 105.501 215.429 105.517 215.433 105.534C215.438 105.55 215.439 105.568 215.436 105.585C215.433 105.602 215.428 105.619 215.419 105.633C215.411 105.649 215.399 105.661 215.385 105.672C215.371 105.682 215.356 105.69 215.339 105.694C215.322 105.699 215.305 105.7 215.288 105.697L215.29 105.687ZM145.567 160.635C145.541 160.635 145.515 160.626 145.493 160.61C145.471 160.595 145.455 160.574 145.445 160.549C145.122 159.58 144.998 158.556 145.08 157.538C145.204 156.001 144.882 154.46 144.154 153.102C143.974 152.744 143.813 152.421 143.662 152.123C142.297 149.412 142.013 148.849 141.868 145.905C141.867 145.87 141.879 145.837 141.902 145.811C141.925 145.785 141.958 145.769 141.992 145.767C142.01 145.766 142.027 145.768 142.043 145.775C142.06 145.78 142.074 145.789 142.087 145.801C142.1 145.813 142.11 145.827 142.117 145.842C142.124 145.859 142.128 145.875 142.128 145.892C142.272 148.781 142.55 149.337 143.894 152.006C144.045 152.303 144.209 152.63 144.385 152.984C145.138 154.383 145.47 155.97 145.341 157.553C145.258 158.539 145.378 159.532 145.692 160.47C145.703 160.502 145.7 160.538 145.686 160.569C145.67 160.6 145.644 160.624 145.612 160.635C145.597 160.637 145.582 160.637 145.567 160.635ZM253.417 99.5965H253.378C251.949 99.1459 251.336 98.3232 250.748 97.5278C250.055 96.5964 249.402 95.7171 247.415 95.542L246.473 95.4663C243.492 95.2364 242.489 95.1589 239.014 91.2731C235.369 87.193 234.538 87.4146 232.083 88.0741L231.927 88.1161C231.91 88.1206 231.892 88.1216 231.875 88.1197C231.857 88.117 231.84 88.1106 231.825 88.1024C231.81 88.0933 231.796 88.0814 231.785 88.0668C231.775 88.0531 231.767 88.0367 231.763 88.0194C231.758 88.003 231.757 87.9847 231.76 87.9674C231.763 87.9501 231.768 87.9327 231.777 87.9172C231.786 87.9026 231.798 87.8889 231.812 87.878C231.826 87.868 231.842 87.8598 231.859 87.8552L232.016 87.8132C234.515 87.1401 235.453 86.8901 239.209 91.0906C242.612 94.8953 243.59 94.971 246.499 95.1954C246.796 95.2182 247.108 95.2419 247.447 95.2738C249.55 95.4562 250.269 96.4268 250.964 97.3608C251.529 98.1225 252.115 98.9078 253.463 99.3357C253.48 99.3411 253.495 99.3493 253.509 99.3603C253.521 99.3712 253.532 99.3849 253.54 99.4004C253.549 99.415 253.553 99.4323 253.555 99.4497C253.557 99.467 253.555 99.4843 253.55 99.5008C253.541 99.529 253.524 99.5546 253.5 99.5719C253.476 99.5902 253.447 99.5984 253.417 99.5965Z" fill="white"/>
<path d="M145.922 76.6285C143.86 76.9091 138.841 64.724 141.194 62.7407C143.546 60.7574 148.91 62.6988 150.693 61.8832C151.822 61.362 153.181 58.4667 151.147 56.9318C149.114 55.3969 143.567 55.2327 141.419 53.9453C139.27 52.658 138.931 49.6924 137.668 47.756C136.405 45.8198 134.779 46.6433 132.471 45.038C130.163 43.4326 132.675 39.8859 134.973 40.4097C137.27 40.9335 140.757 42.9818 141.38 45.2569C142.002 47.5319 143.29 52.0065 146.555 52.4573C149.613 52.8794 157.467 56.0353 159.222 51.8397C160.975 47.644 159.24 43.047 160.967 40.5035C162.695 37.96 175.388 41.6215 175.325 43.6985C175.262 45.7754 164.211 41.4912 168.187 44.9102C172.163 48.3293 174.026 52.6319 172.44 54.4926C170.853 56.3533 168.752 54.8418 169.489 55.6184C170.226 56.3949 173.987 60.5698 177.029 63.3921C180.072 66.2144 183.29 63.1944 189.73 63.1889C196.17 63.1834 201.806 64.8543 200.313 68.0957C199.161 70.5947 195.857 67.52 191.299 67.9554C189.618 68.114 187.767 69.0241 186.097 70.1027C187.669 70.2768 189.184 70.7869 190.541 71.5987L199.103 73.1155L193.614 78.2775C196.288 85.2487 192.331 88.584 192.331 88.584L193.679 94.7089L187.341 91.9776C185.14 92.6117 182.801 92.5971 180.608 91.9357C177.767 91.0493 175.027 85.5639 174.016 83.3355C172.85 85.379 171.805 87.7996 171.828 89.8513C171.886 94.4137 176.081 95.6446 174.363 97.7964C171.951 100.819 167.597 95.1909 166.906 88.8081C166.216 82.4263 168.888 78.9061 165.741 76.1985C162.594 73.49 158.032 70.2039 157.18 69.5579C156.328 68.912 158.056 70.8352 156.373 72.6072C154.689 74.3791 150.198 72.9926 146.359 69.4222C142.519 65.8519 147.987 76.3443 145.922 76.6285Z" fill="white"/>
<path d="M172.779 98.6367C172.574 98.6358 172.37 98.6068 172.173 98.5487C169.749 97.8484 167.277 93.3589 166.778 88.7351C166.517 86.2205 166.751 84.1966 166.965 82.4086C167.283 79.7669 167.512 77.8574 165.664 76.2635C163.059 74.0219 159.552 71.4347 157.865 70.1919C157.534 69.9479 157.285 69.7664 157.141 69.6567V69.6929C157.287 70.2327 157.628 71.51 156.505 72.6802C154.759 74.5199 150.202 73.0975 146.35 69.5142C145.533 68.754 145.309 68.793 145.255 68.8239C144.961 69.0053 145.435 70.6591 145.814 71.9871C146.335 73.845 146.898 75.7682 146.447 76.4558C146.4 76.5275 146.337 76.5883 146.263 76.6336C146.189 76.6781 146.107 76.7062 146.02 76.7153C145.015 76.8531 143.575 74.5018 142.567 72.2548C141.164 69.1196 139.644 63.9769 141.206 62.6534C142.654 61.4337 145.143 61.6569 147.343 61.8541C148.721 61.976 150.022 62.0928 150.7 61.784C151.28 61.5245 151.983 60.4866 152.102 59.3967C152.166 58.9595 152.109 58.5135 151.937 58.1062C151.765 57.6988 151.486 57.3456 151.128 57.0846C150.072 56.2906 148.004 55.865 145.992 55.4524C144.169 55.0787 142.464 54.7258 141.451 54.1186C140.016 53.2571 139.368 51.6794 138.745 50.1509C138.456 49.3708 138.097 48.6185 137.67 47.9037C137 46.8659 136.225 46.6582 135.241 46.3961C134.271 46.1878 133.35 45.7967 132.527 45.2439C131.569 44.5797 131.301 43.5054 131.806 42.3688C132.345 41.1544 133.731 40.0878 135.121 40.4044C137.357 40.9234 140.954 42.9553 141.602 45.3192C142.192 47.473 143.424 51.9518 146.648 52.3982C147.294 52.4864 148.135 52.6914 149.109 52.9301C152.774 53.828 157.79 55.0579 159.128 51.861C159.994 49.7851 159.997 47.5768 159.997 45.6332C159.997 43.604 159.997 41.8524 160.88 40.5576C162.029 38.8683 167.327 39.8232 170.611 40.8793C172.954 41.6318 175.451 42.7996 175.42 43.8168C175.419 43.9034 175.399 43.9887 175.361 44.0664C175.322 44.1441 175.267 44.2122 175.199 44.2657C174.563 44.7846 172.594 44.4474 170.673 44.1203C169.306 43.8868 167.606 43.6014 167.458 43.9076C167.431 43.9595 167.416 44.1905 168.264 44.9196C172.254 48.3501 174.162 52.7044 172.514 54.6427C171.456 55.8857 170.158 55.6808 169.603 55.5952H169.569C169.691 55.7223 169.894 55.9429 170.166 56.2361C171.467 57.6555 174.55 60.9821 177.078 63.3283C178.87 64.9884 180.749 64.5557 183.351 63.9561C185.111 63.5515 187.103 63.0943 189.639 63.0916H189.663C193.873 63.0916 198.846 63.8472 200.211 65.9672C200.419 66.292 200.538 66.6667 200.554 67.0531C200.569 67.4387 200.481 67.8215 200.299 68.1626C199.606 69.6648 198.156 69.2702 196.32 68.7695C194.917 68.3857 193.17 67.9104 191.215 68.0973C189.853 68.227 188.234 68.8756 186.398 70.0204C187.848 70.2336 189.241 70.728 190.501 71.4737L199.005 72.9787C199.028 72.9832 199.05 72.9941 199.068 73.0095C199.087 73.0258 199.099 73.0467 199.107 73.0694C199.113 73.0921 199.114 73.1166 199.107 73.1392C199.1 73.1619 199.087 73.1828 199.07 73.1991L193.667 78.2647C196.094 84.6837 192.862 88.0756 192.378 88.5346L193.717 94.5681C193.721 94.5917 193.721 94.6153 193.713 94.638C193.705 94.6606 193.691 94.6806 193.673 94.696C193.655 94.7105 193.633 94.7205 193.61 94.7241C193.586 94.7278 193.561 94.7251 193.539 94.716L187.257 92.0172C185.051 92.6358 182.714 92.6169 180.518 91.9628C177.745 91.0964 175.092 85.9737 173.977 83.5634C172.605 86.0209 171.921 88.1046 171.941 89.7602C171.97 91.9918 173.008 93.3924 173.842 94.54C174.675 95.6866 175.357 96.6156 174.438 97.755C174.25 98.0208 174.002 98.2385 173.714 98.3918C173.426 98.5449 173.106 98.6288 172.779 98.6367ZM157.003 69.2938C157.116 69.3156 157.22 69.37 157.303 69.4498C157.446 69.5587 157.696 69.7401 158.026 69.9841C159.714 71.2297 163.234 73.8196 165.837 76.0666C167.794 77.7503 167.556 79.717 167.228 82.4394C167.014 84.212 166.775 86.2232 167.043 88.7061C167.522 93.1539 169.957 97.6352 172.251 98.3074C173.019 98.5279 173.686 98.2893 174.24 97.5989C175.035 96.6029 174.478 95.8445 173.637 94.6978C172.795 93.5512 171.717 92.0825 171.686 89.7674C171.665 88.0157 172.405 85.8131 173.88 83.2178C173.894 83.1978 173.911 83.1815 173.932 83.1706C173.953 83.1588 173.977 83.1534 174.001 83.1534C174.024 83.1543 174.048 83.1615 174.067 83.1751C174.087 83.1878 174.103 83.2069 174.113 83.2286C175.154 85.4938 177.836 90.8578 180.601 91.7215C182.761 92.3646 185.06 92.3782 187.228 91.7605C187.259 91.7487 187.291 91.7487 187.321 91.7605L193.402 94.3812L192.113 88.5301C192.108 88.5065 192.109 88.4829 192.118 88.4602C192.125 88.4375 192.139 88.4176 192.157 88.4031C192.196 88.3686 195.995 85.0529 193.397 78.2828C193.387 78.2583 193.386 78.232 193.392 78.2075C193.398 78.1821 193.411 78.1594 193.43 78.1422L198.711 73.1782L190.438 71.715C190.421 71.7105 190.404 71.7032 190.389 71.6941C189.051 70.8976 187.558 70.3951 186.01 70.22C185.982 70.2173 185.958 70.2055 185.937 70.1882C185.917 70.171 185.902 70.1474 185.895 70.1211C185.889 70.0948 185.891 70.0672 185.901 70.0422C185.912 70.0172 185.93 69.996 185.952 69.9814C187.95 68.6842 189.712 67.9648 191.191 67.8251C193.194 67.6328 194.967 68.1154 196.399 68.5018C198.25 69.0216 199.473 69.3401 200.072 68.0374C200.235 67.7362 200.315 67.3969 200.303 67.0549C200.291 66.7129 200.187 66.38 200.002 66.0915C198.925 64.4151 194.87 63.3356 189.675 63.3356H189.65C187.145 63.3356 185.166 63.7928 183.421 64.1947C180.739 64.8124 178.802 65.2588 176.912 63.5016C174.378 61.1509 171.301 57.819 169.988 56.3969L169.392 55.756C169.256 55.6133 169.163 55.4965 169.225 55.3875C169.288 55.2786 169.418 55.2889 169.658 55.3253C170.212 55.4135 171.365 55.5847 172.329 54.4638C173.891 52.6473 171.991 48.4409 168.106 45.1012C167.371 44.4707 167.104 44.0633 167.236 43.7831C167.458 43.316 168.645 43.495 170.73 43.8506C172.409 44.1386 174.5 44.4966 175.047 44.0529C175.087 44.0222 175.118 43.9827 175.14 43.9377C175.162 43.8927 175.173 43.8434 175.172 43.7934C175.193 43.085 173.334 42.0081 170.543 41.1103C166.674 39.8673 162.054 39.2938 161.109 40.6873C160.274 41.9173 160.274 43.6326 160.271 45.6177C160.268 47.6027 160.271 49.8318 159.38 51.9518C157.959 55.3564 152.61 54.0434 149.059 53.1767C148.093 52.9379 147.257 52.7329 146.624 52.6577C143.239 52.188 141.971 47.5976 141.362 45.3919C140.742 43.1239 137.251 41.1544 135.077 40.6588C133.819 40.3733 132.554 41.3594 132.056 42.4752C131.606 43.4898 131.843 44.4474 132.688 45.0338C133.486 45.5718 134.378 45.954 135.319 46.16C136.313 46.4194 137.175 46.653 137.899 47.7766C138.334 48.506 138.702 49.2729 138.997 50.0679C139.607 51.5549 140.234 53.0936 141.602 53.9084C142.578 54.4949 144.271 54.8426 146.062 55.2059C148.095 55.6236 150.199 56.0545 151.303 56.8848C151.696 57.1736 152.003 57.5629 152.193 58.0115C152.382 58.4599 152.446 58.951 152.379 59.433C152.246 60.6578 151.47 61.7347 150.816 62.0284C150.074 62.3649 148.801 62.2515 147.327 62.1191C145.179 61.9268 142.745 61.7088 141.383 62.8611C140.097 63.9452 141.162 68.4583 142.815 72.1532C144.013 74.8256 145.299 76.5647 145.995 76.4612C146.044 76.4558 146.091 76.4397 146.133 76.4141C146.175 76.3878 146.21 76.3524 146.237 76.3107C146.622 75.7183 146.038 73.6872 145.572 72.0525C144.991 70.0277 144.685 68.8683 145.127 68.598C145.387 68.4374 145.828 68.6579 146.538 69.3192C150.288 72.8072 154.68 74.2315 156.329 72.4961C157.352 71.4193 157.05 70.2953 156.904 69.7555C156.841 69.5224 156.805 69.3945 156.917 69.3192C156.943 69.3029 156.972 69.2938 157.003 69.2938Z" fill="#11100E"/>
<path d="M184.388 84.2527C184.446 83.7172 184.268 83.2577 183.99 83.2243C183.711 83.1919 183.439 83.5996 183.381 84.135C183.322 84.6705 183.501 85.1309 183.778 85.1634C184.057 85.1958 184.33 84.7882 184.388 84.2527ZM180.332 85.0124C181.372 84.8252 182.391 84.5352 183.377 84.1461C183.377 84.1461 182.178 83.1521 181.047 82.3174C180.483 81.9042 179.182 81.3715 178.303 82.6407C177.425 83.9099 179.312 85.1847 180.332 85.0124ZM184.378 79.7548C184.362 79.7576 184.344 79.7576 184.327 79.7548C184.312 79.7475 184.298 79.7374 184.286 79.7252C184.274 79.7122 184.265 79.6974 184.259 79.6817C184.253 79.665 184.249 79.6474 184.25 79.6307C184.25 79.6131 184.254 79.5955 184.261 79.5797L186.309 74.6715C186.323 74.6392 186.348 74.6138 186.38 74.601C186.412 74.5881 186.447 74.5888 186.478 74.6029C186.51 74.6168 186.534 74.6428 186.546 74.6761C186.559 74.7086 186.559 74.7456 186.545 74.778L184.496 79.6854C184.485 79.7076 184.468 79.7261 184.447 79.7382C184.426 79.7502 184.402 79.7558 184.378 79.7548ZM183.271 79.3972C183.243 79.3963 183.215 79.3861 183.192 79.3676C183.169 79.3491 183.153 79.3231 183.146 79.2935L181.896 73.5431C181.889 73.5084 181.896 73.4723 181.913 73.4421C181.922 73.4273 181.934 73.4152 181.948 73.4051C181.962 73.3949 181.978 73.3875 181.994 73.3838C182.027 73.3763 182.061 73.3838 182.09 73.4023C182.117 73.4208 182.138 73.4505 182.145 73.4847L183.398 79.2351C183.405 79.2698 183.399 79.3059 183.381 79.3361C183.372 79.35 183.36 79.363 183.346 79.3732C183.332 79.3833 183.316 79.3908 183.3 79.3945L183.271 79.3972ZM183.863 95.6367C183.833 95.6367 183.803 95.6256 183.781 95.6052C183.758 95.5848 183.742 95.5561 183.738 95.5246L182.734 88.958C182.732 88.9414 182.733 88.9238 182.736 88.9062C182.745 88.8723 182.766 88.8432 182.794 88.8246C182.81 88.8154 182.825 88.8098 182.842 88.807C182.859 88.8043 182.876 88.8052 182.892 88.8098C182.908 88.8138 182.924 88.8212 182.937 88.8315C182.951 88.8419 182.962 88.855 182.971 88.87C182.98 88.8849 182.985 88.9015 182.988 88.9182L183.997 95.4857C184.002 95.52 183.994 95.5552 183.974 95.583C183.955 95.6117 183.925 95.6302 183.892 95.6367H183.863ZM179.22 95.3236C179.208 95.3264 179.196 95.3264 179.184 95.3236C179.152 95.3143 179.124 95.2912 179.108 95.2606C179.092 95.2291 179.088 95.193 179.098 95.1596L181.036 88.5161C181.048 88.4856 181.072 88.4624 181.1 88.4485C181.128 88.4346 181.161 88.4328 181.191 88.442C181.221 88.4513 181.246 88.4717 181.262 88.4995C181.279 88.5273 181.285 88.5606 181.279 88.5921L179.343 95.2365C179.334 95.2624 179.318 95.2847 179.295 95.3004C179.273 95.3162 179.247 95.3245 179.22 95.3236ZM175.684 77.2294C175.666 77.2331 175.648 77.2331 175.63 77.2294C175.615 77.222 175.601 77.2109 175.59 77.1979C175.578 77.1849 175.569 77.1701 175.564 77.1534C175.558 77.1367 175.555 77.1191 175.556 77.1025C175.557 77.0849 175.561 77.0673 175.568 77.0515C179.124 69.1777 185.359 69.6419 185.421 69.6419C185.454 69.6456 185.486 69.6623 185.508 69.6891C185.529 69.716 185.541 69.7503 185.538 69.7855C185.537 69.8022 185.533 69.8198 185.526 69.8355C185.518 69.8513 185.508 69.8652 185.495 69.8763C185.482 69.8883 185.467 69.8967 185.451 69.9022C185.435 69.9068 185.418 69.9087 185.401 69.9068C185.339 69.9068 179.274 69.4622 175.799 77.1497C175.79 77.1729 175.774 77.1933 175.754 77.2081C175.733 77.222 175.709 77.2294 175.684 77.2294Z" fill="#11100E"/>
<path d="M335.707 228.985L335.601 228.819C335.64 228.874 335.674 228.929 335.707 228.985Z" fill="white"/>
</svg>
